<svg width="24" height="24" viewBox="0 0 24 24" fill="none" xmlns="http://www.w3.org/2000/svg">
<path fill-rule="evenodd" clip-rule="evenodd" d="M20 5C21.1046 5 22 5.89539 22 7V17C22 18.1046 21.1046 19 20 19H4C2.89545 19 2 18.1046 2 17V7C2 5.89539 2.89545 5 4 5H20ZM20 16.5V11H4V16.5C4 16.7761 4.22388 17 4.5 17H19.5C19.7761 17 20 16.7761 20 16.5ZM20 9V7.5C20 7.22382 19.7761 7 19.5 7H4.5C4.22388 7 4 7.22382 4 7.5V9H20ZM7 15C6.44772 15 6 14.5523 6 14C6 13.4477 6.44772 13 7 13C7.55228 13 8 13.4477 8 14C8 14.5523 7.55228 15 7 15Z" fill="#00716B"/>
</svg>
