<svg width="24" height="24" viewBox="0 0 24 24" fill="none" xmlns="http://www.w3.org/2000/svg">
<path d="M20 16V16.5C20 16.6326 19.9473 16.7598 19.8536 16.8536C19.7598 16.9473 19.6326 17 19.5 17H4.5C4.36739 17 4.24021 16.9473 4.14645 16.8536C4.05268 16.7598 4 16.6326 4 16.5V11H12.86C12.3342 10.4637 12.0276 9.75051 12 9H4V7.5C4 7.36739 4.05268 7.24021 4.14645 7.14645C4.24021 7.05268 4.36739 7 4.5 7H12.67C12.7419 6.90623 12.8223 6.8192 12.91 6.74L14.7 5H4C3.47005 5.00158 2.96227 5.2128 2.58753 5.58753C2.2128 5.96227 2.00158 6.47005 2 7V17C2.00158 17.5299 2.2128 18.0377 2.58753 18.4125C2.96227 18.7872 3.47005 18.9984 4 19H20C20.5299 18.9984 21.0377 18.7872 21.4125 18.4125C21.7872 18.0377 21.9984 17.5299 22 17V16C22 15.7348 21.8946 15.4804 21.7071 15.2929C21.5196 15.1054 21.2652 15 21 15C20.7348 15 20.4804 15.1054 20.2929 15.2929C20.1054 15.4804 20 15.7348 20 16Z" fill="#00716B"/>
<path d="M7 15C7.55228 15 8 14.5523 8 14C8 13.4477 7.55228 13 7 13C6.44772 13 6 13.4477 6 14C6 14.5523 6.44772 15 7 15Z" fill="#00716B"/>
<path d="M21.6941 9.61498C21.4955 9.806 21.2306 9.91271 20.9551 9.91271C20.6795 9.91271 20.4147 9.806 20.2161 9.61498L17.2611 6.73698C17.1644 6.64371 17.0876 6.53193 17.0351 6.40831C16.9826 6.2847 16.9556 6.15178 16.9556 6.01748C16.9556 5.88318 16.9826 5.75026 17.0351 5.62664C17.0876 5.50302 17.1644 5.39125 17.2611 5.29798C17.4597 5.10695 17.7245 5.00024 18.0001 5.00024C18.2756 5.00024 18.5405 5.10695 18.7391 5.29798L21.6941 8.17598C21.7907 8.26925 21.8676 8.38102 21.92 8.50464C21.9725 8.62826 21.9996 8.76118 21.9996 8.89548C21.9996 9.02978 21.9725 9.1627 21.92 9.28631C21.8676 9.40993 21.7907 9.52171 21.6941 9.61498Z" fill="#00716B"/>
<path d="M17 7.86V14C17 14.5523 17.4477 15 18 15C18.5523 15 19 14.5523 19 14V7.86C19 7.30772 18.5523 6.86 18 6.86C17.4477 6.86 17 7.30772 17 7.86Z" fill="#00716B"/>
<path d="M18.739 5.29999C18.8356 5.39326 18.9125 5.50504 18.965 5.62865C19.0175 5.75227 19.0445 5.88519 19.0445 6.01949C19.0445 6.15379 19.0175 6.28671 18.965 6.41033C18.9125 6.53394 18.8356 6.64572 18.739 6.73899L15.784 9.61499C15.5854 9.80602 15.3206 9.91272 15.045 9.91272C14.7694 9.91272 14.5046 9.80602 14.306 9.61499V9.61499C14.2094 9.52172 14.1325 9.40994 14.08 9.28633C14.0275 9.16271 14.0005 9.02979 14.0005 8.89549C14.0005 8.76119 14.0275 8.62827 14.08 8.50465C14.1325 8.38104 14.2094 8.26926 14.306 8.17599L17.261 5.29999C17.4596 5.10896 17.7244 5.00226 18 5.00226C18.2756 5.00226 18.5404 5.10896 18.739 5.29999V5.29999Z" fill="#00716B"/>
</svg>
