<svg width="10" height="6" viewBox="0 0 10 6" fill="none" xmlns="http://www.w3.org/2000/svg">
<path d="M1.37565 0.62435C1.16818 0.416883 0.831816 0.416883 0.62435 0.62435C0.416883 0.831816 0.416883 1.16818 0.62435 1.37565L1.37565 0.62435ZM5.0625 5.0625L4.68685 5.43815C4.7919 5.5432 4.93614 5.59947 5.08458 5.59329C5.23301 5.58712 5.37208 5.51907 5.46805 5.40566L5.0625 5.0625ZM8.90555 1.34316C9.09507 1.11918 9.06714 0.783971 8.84316 0.594451C8.61918 0.404931 8.28397 0.432865 8.09445 0.656843L8.90555 1.34316ZM0.62435 1.37565L4.68685 5.43815L5.43815 4.68685L1.37565 0.62435L0.62435 1.37565ZM5.46805 5.40566L8.90555 1.34316L8.09445 0.656843L4.65695 4.71934L5.46805 5.40566Z" fill="#00716B"/>
</svg>
