<svg width="10" height="6" viewBox="0 0 10 6" fill="none" xmlns="http://www.w3.org/2000/svg">
<path d="M1.87565 0.62435C1.66818 0.416883 1.33182 0.416883 1.12435 0.62435C0.916883 0.831816 0.916883 1.16818 1.12435 1.37565L1.87565 0.62435ZM5.5625 5.0625L5.18685 5.43815C5.2919 5.5432 5.43614 5.59947 5.58458 5.59329C5.73301 5.58712 5.87208 5.51907 5.96805 5.40566L5.5625 5.0625ZM9.40555 1.34316C9.59507 1.11918 9.56714 0.783971 9.34316 0.594451C9.11918 0.404931 8.78397 0.432865 8.59445 0.656843L9.40555 1.34316ZM1.12435 1.37565L5.18685 5.43815L5.93815 4.68685L1.87565 0.62435L1.12435 1.37565ZM5.96805 5.40566L9.40555 1.34316L8.59445 0.656843L5.15695 4.71934L5.96805 5.40566Z" fill="white"/>
</svg>
