<svg id="Layer_5" data-name="Layer 5" xmlns="http://www.w3.org/2000/svg" xmlns:xlink="http://www.w3.org/1999/xlink" viewBox="0 0 72 72"><defs><style>.cls-1{fill-rule:evenodd;opacity:0.08;}.cls-2{fill:url(#linear-gradient);}.cls-3{fill:url(#linear-gradient-2);}.cls-4{fill:url(#linear-gradient-3);}.cls-5{fill:url(#linear-gradient-4);}.cls-6{fill:url(#linear-gradient-5);}.cls-7{fill:url(#linear-gradient-6);}.cls-8{fill:url(#linear-gradient-7);}.cls-9{fill:url(#linear-gradient-8);}.cls-10{fill:#009286;}.cls-11{fill:url(#linear-gradient-9);}.cls-12{fill:url(#linear-gradient-19);}.cls-13{fill:#005e5d;}.cls-14{fill:#ffd100;}</style><linearGradient id="linear-gradient" x1="54.026" y1="-8.812" x2="31.193" y2="48.354" gradientUnits="userSpaceOnUse"><stop offset="0" stop-color="#009695"/><stop offset="1" stop-color="#005e5d"/></linearGradient><linearGradient id="linear-gradient-2" x1="41.212" y1="27.606" x2="-1.788" y2="101.273" gradientUnits="userSpaceOnUse"><stop offset="0" stop-color="#00c4bb"/><stop offset="1" stop-color="#009185"/></linearGradient><linearGradient id="linear-gradient-3" x1="51.414" y1="19.113" x2="41.248" y2="40.946" xlink:href="#linear-gradient"/><linearGradient id="linear-gradient-4" x1="59.507" y1="37.912" x2="15.203" y2="63.166" xlink:href="#linear-gradient"/><linearGradient id="linear-gradient-5" x1="16.393" y1="67.918" x2="74.811" y2="-21.545" gradientTransform="translate(71 71.713) rotate(180)" gradientUnits="userSpaceOnUse"><stop offset="0" stop-color="#005e5d"/><stop offset="0.644" stop-color="#009695"/></linearGradient><linearGradient id="linear-gradient-6" x1="23.762" y1="62.059" x2="37.286" y2="42.813" gradientUnits="userSpaceOnUse"><stop offset="0" stop-color="#005e5d"/><stop offset="0.448" stop-color="#008584"/><stop offset="0.644" stop-color="#009695"/></linearGradient><linearGradient id="linear-gradient-7" x1="51.176" y1="20.436" x2="-9.453" y2="84.97" xlink:href="#linear-gradient-2"/><linearGradient id="linear-gradient-8" x1="38.528" y1="31.112" x2="39.863" y2="23.77" gradientTransform="matrix(1, 0, 0, 1, 0, 0)" xlink:href="#linear-gradient-5"/><linearGradient id="linear-gradient-9" x1="50.032" y1="36.38" x2="57.099" y2="21.083" gradientUnits="userSpaceOnUse"><stop offset="0" stop-color="#ffd645"/><stop offset="1" stop-color="#fdb813"/></linearGradient><linearGradient id="linear-gradient-19" x1="34.996" y1="39.043" x2="42.689" y2="39.043" gradientUnits="userSpaceOnUse"><stop offset="0" stop-opacity="0.05"/><stop offset="1" stop-opacity="0.12"/></linearGradient></defs><title>pr</title><path class="cls-1" d="M56.883,52.293,54.859,23.35a1.985,1.985,0,0,0-2.119-1.843L8.819,24.578A1.987,1.987,0,0,0,6.976,26.7L9,55.641l-6.983.489.139,1.978a2.016,2.016,0,0,0,2.152,1.871l57.825-4.043a2.018,2.018,0,0,0,1.872-2.153l-.139-1.978Z"/><path class="cls-2" d="M13.986,20H58.014A1.986,1.986,0,0,1,60,21.986V51.035a0,0,0,0,1,0,0H12a0,0,0,0,1,0,0V21.986A1.986,1.986,0,0,1,13.986,20Z"/><rect class="cls-3" x="13.972" y="22.083" width="44" height="29"/><path class="cls-4" d="M5,51H67a0,0,0,0,1,0,0v1.983A2.017,2.017,0,0,1,64.983,55H7.017A2.017,2.017,0,0,1,5,52.983V51a0,0,0,0,1,0,0Z"/><path class="cls-5" d="M29,51H42a0,0,0,0,1,0,0v.035a2,2,0,0,1-2,2H31a2,2,0,0,1-2-2V51a0,0,0,0,1,0,0Z"/><polygon class="cls-1" points="38.99 22 14 46.99 14 22 38.99 22"/><path class="cls-6" d="M27,24H44a0,0,0,0,1,0,0V39.738a7.975,7.975,0,0,1-7.975,7.975h-1.05A7.975,7.975,0,0,1,27,39.738V24a0,0,0,0,1,0,0Z" transform="translate(71 71.713) rotate(-180)"/><path class="cls-7" d="M39,42.305v6.1H32v-6.1a10.693,10.693,0,0,0,7,0Z"/><path class="cls-8" d="M38.148,30.516C35.962,34.367,29,34.548,29,34.548v2.52a6.5,6.5,0,1,0,13,0V33.036A4.959,4.959,0,0,1,38.148,30.516Z"/><path class="cls-9" d="M46,46.53V49H25V46.53A29.176,29.176,0,0,1,32,45c0,1.1,1.57,2,3.5,2s3.5-.9,3.5-2A29.176,29.176,0,0,1,46,46.53Z"/><polygon class="cls-10" points="51 36 47 31.875 47 25 55 25 55 31.784 51 36"/><polygon class="cls-11" points="51 36 51 28 55 31.912 51 36"/><path class="cls-1" d="M56.883,52.293,54.859,23.35a1.985,1.985,0,0,0-2.119-1.843L8.819,24.578A1.987,1.987,0,0,0,6.976,26.7L9,55.641l-6.983.489.139,1.978a2.016,2.016,0,0,0,2.152,1.871l57.825-4.043a2.018,2.018,0,0,0,1.872-2.153l-.139-1.978Z"/><path class="cls-2" d="M13.986,20H58.014A1.986,1.986,0,0,1,60,21.986V51.035a0,0,0,0,1,0,0H12a0,0,0,0,1,0,0V21.986A1.986,1.986,0,0,1,13.986,20Z"/><rect class="cls-3" x="13.972" y="22.083" width="44" height="29"/><path class="cls-4" d="M5,51H67a0,0,0,0,1,0,0v1.983A2.017,2.017,0,0,1,64.983,55H7.017A2.017,2.017,0,0,1,5,52.983V51a0,0,0,0,1,0,0Z"/><path class="cls-5" d="M29,51H42a0,0,0,0,1,0,0v.035a2,2,0,0,1-2,2H31a2,2,0,0,1-2-2V51a0,0,0,0,1,0,0Z"/><polygon class="cls-1" points="38.99 22 14 46.99 14 22 38.99 22"/><path class="cls-6" d="M27,24H44a0,0,0,0,1,0,0V39.738a7.975,7.975,0,0,1-7.975,7.975h-1.05A7.975,7.975,0,0,1,27,39.738V24a0,0,0,0,1,0,0Z" transform="translate(71 71.713) rotate(-180)"/><path class="cls-7" d="M39,42.305v6.1H32v-6.1a10.693,10.693,0,0,0,7,0Z"/><path class="cls-8" d="M38.148,30.516C35.962,34.367,29,34.548,29,34.548v2.52a6.5,6.5,0,1,0,13,0V33.036A4.959,4.959,0,0,1,38.148,30.516Z"/><path class="cls-9" d="M46,46.53V49H25V46.53A29.176,29.176,0,0,1,32,45c0,1.1,1.57,2,3.5,2s3.5-.9,3.5-2A29.176,29.176,0,0,1,46,46.53Z"/><polygon class="cls-10" points="51 36 47 31.875 47 25 55 25 55 31.784 51 36"/><polygon class="cls-11" points="51 36 51 28 55 31.912 51 36"/><path class="cls-12" d="M41.834,36.052v1.587c0,1.34-1.558,2.513-3.693,2.94a.984.984,0,0,0-.918-.681H36.008a1.07,1.07,0,0,0,0,2.137h1.215a1,1,0,0,0,.892-.573c2.665-.459,4.574-1.973,4.574-3.823V36.052Z"/><path class="cls-13" d="M36.492,40.753V39.9c2.9,0,5.342-1.426,5.342-3.114V35.2h.855v1.587C42.689,39.01,39.967,40.753,36.492,40.753Z"/><rect class="cls-14" x="35.851" y="39.043" width="3.419" height="2.137" rx="1.069"/><path class="cls-13" d="M42.518,38.616h0a.684.684,0,0,1-.684-.684V34.684A.684.684,0,0,1,42.518,34h0a2.308,2.308,0,0,1,2.308,2.308h0A2.308,2.308,0,0,1,42.518,38.616Z"/></svg>