<svg width="24" height="24" viewBox="0 0 24 24" fill="none" xmlns="http://www.w3.org/2000/svg">
<path d="M17 4V20H7V4H17ZM18 2H6C5.45 2 5 2.45 5 3V21C5 21.55 5.45 22 6 22H18C18.55 22 19 21.55 19 21V3C19 2.45 18.55 2 18 2Z" fill="#00716B"/>
<path d="M10.5 10H9.5C9.22 10 9 10.22 9 10.5V11.5C9 11.78 9.22 12 9.5 12H10.5C10.78 12 11 11.78 11 11.5V10.5C11 10.22 10.78 10 10.5 10Z" fill="#00716B"/>
<path d="M14.5 10H13.5C13.22 10 13 10.22 13 10.5V11.5C13 11.78 13.22 12 13.5 12H14.5C14.78 12 15 11.78 15 11.5V10.5C15 10.22 14.78 10 14.5 10Z" fill="#00716B"/>
<path d="M13 22H11C10.45 22 10 21.55 10 21V15C10 14.45 10.45 14 11 14H13C13.55 14 14 14.45 14 15V21C14 21.55 13.55 22 13 22Z" fill="#00716B"/>
<path d="M10.5 6H9.5C9.22 6 9 6.22 9 6.5V7.5C9 7.78 9.22 8 9.5 8H10.5C10.78 8 11 7.78 11 7.5V6.5C11 6.22 10.78 6 10.5 6Z" fill="#00716B"/>
<path d="M14.5 6H13.5C13.22 6 13 6.22 13 6.5V7.5C13 7.78 13.22 8 13.5 8H14.5C14.78 8 15 7.78 15 7.5V6.5C15 6.22 14.78 6 14.5 6Z" fill="#00716B"/>
<path d="M21 22H3V20.62C3 20.24 3.21 19.89 3.55 19.73L5 19H19L20.45 19.72C20.79 19.89 21 20.24 21 20.61V22Z" fill="#00716B"/>
</svg>
