<svg id="Layer_5" data-name="Layer 5" xmlns="http://www.w3.org/2000/svg" xmlns:xlink="http://www.w3.org/1999/xlink" viewBox="0 0 72 72"><defs><style>.cls-1{opacity:0.08;}.cls-2{fill:url(#linear-gradient);}.cls-3{fill:url(#linear-gradient-2);}.cls-4{fill:url(#linear-gradient-3);}.cls-5{fill:url(#linear-gradient-4);}.cls-6{fill:none;stroke:#005e5d;stroke-miterlimit:10;stroke-width:2px;}.cls-7{fill:#ffd100;}.cls-8{fill:#005e5d;}</style><linearGradient id="linear-gradient" x1="23.589" y1="66.255" x2="44.927" y2="44.917" gradientUnits="userSpaceOnUse"><stop offset="0" stop-color="#005e5d"/><stop offset="0.448" stop-color="#008584"/><stop offset="0.644" stop-color="#009695"/></linearGradient><linearGradient id="linear-gradient-2" x1="27.217" y1="40.035" x2="54.362" y2="12.89" gradientUnits="userSpaceOnUse"><stop offset="0" stop-color="#005e5d"/><stop offset="0.644" stop-color="#009695"/></linearGradient><linearGradient id="linear-gradient-3" x1="41.072" y1="34.62" x2="21.987" y2="53.705" gradientUnits="userSpaceOnUse"><stop offset="0" stop-color="#00c4bb"/><stop offset="1" stop-color="#009185"/></linearGradient><linearGradient id="linear-gradient-4" x1="32.996" y1="45.035" x2="50.996" y2="45.035" gradientUnits="userSpaceOnUse"><stop offset="0" stop-opacity="0.05"/><stop offset="1" stop-opacity="0.12"/></linearGradient></defs><title>pr</title><path class="cls-1" d="M52.118,40.139a5.387,5.387,0,0,0-4.359-4.9c0-.044,0-.088,0-.133l-.2-2.787a16.277,16.277,0,0,0-17.373-15.1l-.444.031a16.277,16.277,0,0,0-15.1,17.373l.2,2.787a16.405,16.405,0,0,0,4.1,9.758,13.3,13.3,0,0,0,5.124,7.5l.493,7.05,17.956-1.255-.557-7.974c.033-.038.061-.08.094-.119,2.827-1.674,4.734-3.957,5.223-6.492A5.39,5.39,0,0,0,52.118,40.139Z"/><path class="cls-2" d="M45,49.663v8.372H27V49.663a21.746,21.746,0,0,0,9,1.715A21.753,21.753,0,0,0,45,49.663Z"/><path class="cls-3" d="M35.5,49.607h0A16.5,16.5,0,0,0,52,33.107V30.313A16.278,16.278,0,0,0,35.718,14.035h-.445A16.277,16.277,0,0,0,19,30.313v2.794A16.5,16.5,0,0,0,35.5,49.607Z"/><path class="cls-4" d="M48.812,32.983a17.848,17.848,0,0,1-6.606-6.948c-4.545,7.638-20.027,8.123-20.027,8.123v6.561A13.316,13.316,0,0,0,35.5,54.035h0A13.316,13.316,0,0,0,48.812,40.719Z"/><path class="cls-5" d="M49,38.035v4.024c0,3.245-3.3,6.038-8.02,7.283a2.492,2.492,0,0,0-2.48-2.307h-3a2.5,2.5,0,0,0,0,5h3a2.48,2.48,0,0,0,1.325-.387C46.34,50.469,51,46.682,51,42.059V38.035Z"/><path class="cls-6" d="M37.5,49.035h0c8.008,0,12.5-3.018,12.5-7.976l2-5.024"/><rect class="cls-7" x="34.996" y="45.035" width="8" height="5" rx="2.5"/><path class="cls-8" d="M50.6,33.035h0a5.4,5.4,0,0,1,5.4,5.4v0a5.4,5.4,0,0,1-5.4,5.4h0a1.6,1.6,0,0,1-1.6-1.6v-7.6A1.6,1.6,0,0,1,50.6,33.035Z"/></svg>