<svg width="24" height="24" viewBox="0 0 24 24" fill="none" xmlns="http://www.w3.org/2000/svg">
<path fill-rule="evenodd" clip-rule="evenodd" d="M13.9999 18H19.9999V8H13.9999V18ZM17.0059 20.747C16.5929 20.747 16.2579 20.413 16.2579 20C16.2579 19.587 16.5929 19.252 17.0059 19.252C17.4199 19.252 17.7539 19.587 17.7539 20C17.7539 20.413 17.4199 20.747 17.0059 20.747ZM14.0197 22C14.013 22.0001 14.0063 22.0001 13.9995 22.0001H3.99951C2.89551 22.0001 1.99951 21.1041 1.99951 20.0001V4.0001C1.99951 2.8961 2.89551 2.0001 3.99951 2.0001H13.9995C15.1035 2.0001 15.9995 2.8961 15.9995 4.0001V6H19.9999C21.1039 6 21.9999 6.896 21.9999 8V20C21.9999 21.105 21.1039 22 19.9999 22H14.0197ZM11.9999 20V8C11.9999 6.89613 12.8947 6.00022 13.9995 6V4.0001H3.99951V20.0001H11.9999V20Z" fill="#00716B"/>
</svg>
