<svg xmlns="http://www.w3.org/2000/svg" width="72" height="72" viewBox="0 0 72 72"><defs><linearGradient id="pr-documents-search-a" x1="94.321%" x2="41.04%" y1=".249%" y2="60.404%"><stop offset="0%" stop-color="#009796"/><stop offset="100%" stop-color="#005E5D"/></linearGradient><linearGradient id="pr-documents-search-b" x1="76.159%" x2="13.768%" y1="30.355%" y2="78.786%"><stop offset="0%" stop-color="#00C5BC"/><stop offset="100%" stop-color="#009286"/></linearGradient><linearGradient id="pr-documents-search-c" x1="110.424%" x2="-63.637%" y1="-35.966%" y2="178.394%"><stop offset="0%" stop-color="#00C5BC"/><stop offset="100%" stop-color="#009286"/></linearGradient><linearGradient id="pr-documents-search-d" x1="96.356%" x2="33.942%" y1="-40.842%" y2="87.339%"><stop offset="0%" stop-color="#00C5BC"/><stop offset="100%" stop-color="#009286"/></linearGradient><linearGradient id="pr-documents-search-e" x1="63.549%" x2="37.729%" y1="10.714%" y2="85.639%"><stop offset="0%" stop-color="#009796"/><stop offset="100%" stop-color="#005E5D"/></linearGradient></defs><g fill="none" fill-rule="evenodd" transform="translate(1 18)"><path fill="#000" fill-rule="nonzero" d="M62.592 35.456l-10.33-8.98-1.579-1.376C52.623 21.249 46.222 27 42 27c-8 0-11.356-6.639-12-9C27 7 40.772 3.461 37.258 3.491A14.9 14.9 0 0 0 23.19 13.8l-6.59.46-3.274-2.779-10.612.743A2.978 2.978 0 0 0 .346 15.4l1.485 20.365a2.6 2.6 0 0 0 2.7 2.473h.056v.023l28.893-2.025a3.7 3.7 0 0 0 3.046-2.963 14.98 14.98 0 0 0 9.341-2.63l1.588 1.381L57.776 41a2.082 2.082 0 0 0 2.928-.205l2.096-2.412a2.081 2.081 0 0 0-.208-2.927z" opacity=".08"/><path fill="url(#pr-documents-search-a)" fill-rule="nonzero" d="M36.032 11.035H21.3l-3.072-3H7.586a2.981 2.981 0 0 0-2.586 3l.061 20.423a2.6 2.6 0 0 0 2.525 2.655h28.446a2.6 2.6 0 0 0 2.525-2.655V13.435a2.385 2.385 0 0 0-2.525-2.4z"/><path fill="url(#pr-documents-search-b)" fill-rule="nonzero" d="M36.6 34.135H7.636L11.688 17.5a3.718 3.718 0 0 1 3.28-2.848h26.374c1.423 0 2.276 1.282 1.894 2.848L39.88 31.288a3.715 3.715 0 0 1-3.28 2.847z"/><path fill="#005E5D" fill-rule="nonzero" d="M32.886 25.087a16.586 16.586 0 0 0 8.283 4.5L41 12.035a2.8 2.8 0 0 0-2.657-3H28.7a15.792 15.792 0 0 0 4.186 16.052z"/><path fill="url(#pr-documents-search-c)" fill-rule="nonzero" d="M32.886 25.087a16.611 16.611 0 0 0 10.146 4.8l3.374-13.856c.426-1.752-.527-3.186-2.12-3.186H28.015a16.642 16.642 0 0 0 4.871 12.242z"/><path fill="#000" fill-rule="nonzero" d="M32.569 24.184a12.924 12.924 0 0 1-3.128-13.149h-4.147A16.848 16.848 0 0 0 39.7 31.826c.075-.174.135-.354.181-.538l.822-3.376a12.852 12.852 0 0 1-8.134-3.728z" opacity=".08"/><polygon fill="#FFD200" fill-rule="nonzero" points="48.605 21.511 55.946 21.511 55.946 29.737 48.605 29.737" transform="rotate(-45 52.275 25.624)"/><path fill="url(#pr-documents-search-d)" d="M53.716 27.1a14.849 14.849 0 0 1-2.911 2.247l9.67 9.67a2.082 2.082 0 0 0 2.935 0l2.256-2.256a2.082 2.082 0 0 0 0-2.935l-9.679-9.678a14.832 14.832 0 0 1-2.271 2.952z"/><circle cx="42.05" cy="15.308" r="11.699" fill="#FFF" fill-rule="nonzero" opacity=".5"/><path fill="url(#pr-documents-search-e)" fill-rule="nonzero" d="M52.249 25.6a14.916 14.916 0 1 1 0-21.094c5.815 5.83 5.815 15.265 0 21.094zM34.28 7.629a10.5 10.5 0 1 0 14.844 0c-4.102-4.092-10.742-4.092-14.844 0z"/></g></svg>