<svg width="20" height="23" viewBox="0 0 20 23" fill="none" xmlns="http://www.w3.org/2000/svg">
<path fill-rule="evenodd" clip-rule="evenodd" d="M9.54038 0.0400449C9.72342 -0.0133728 9.91792 -0.0133478 10.1009 0.0401169L18.9131 2.61431C19.3395 2.73889 19.6327 3.1299 19.6327 3.57419V8.85324C19.6327 14.8324 15.8062 20.1405 10.1337 22.0306C9.92854 22.099 9.70674 22.099 9.50157 22.0306C3.82758 20.1406 0 14.8313 0 8.85079V3.57419C0 3.12981 0.293256 2.73873 0.719846 2.61424L9.54038 0.0400449ZM2 4.32407V8.85079C2 13.8585 5.13491 18.3163 9.81755 20.0229C14.4988 18.3163 17.6327 13.8596 17.6327 8.85324V4.32386L9.82041 2.04175L2 4.32407ZM15.4214 7.15004C15.8119 7.54056 15.8119 8.17373 15.4214 8.56425L9.54384 14.4418C9.35631 14.6293 9.10195 14.7347 8.83673 14.7347C8.57152 14.7347 8.31716 14.6293 8.12963 14.4418L4.70106 11.0132C4.31053 10.6227 4.31053 9.98954 4.70106 9.59902C5.09158 9.20849 5.72475 9.20849 6.11527 9.59902L8.83673 12.3205L14.0072 7.15004C14.3977 6.75951 15.0309 6.75951 15.4214 7.15004Z" fill="black"/>
</svg>
