<svg xmlns="http://www.w3.org/2000/svg" width="72" height="72" viewBox="0 0 72 72"><defs><linearGradient id="pr-profiles-people-a" x1="78.513%" x2="43.284%" y1="2.328%" y2="109.613%"><stop offset="36%" stop-color="#009796"/><stop offset="100%" stop-color="#005E5D"/></linearGradient><linearGradient id="pr-profiles-people-b" x1="76.759%" x2="31.462%" y1="-.028%" y2="153.121%"><stop offset="0%" stop-color="#00C5BC"/><stop offset="89.1%" stop-color="#00988C"/><stop offset="100%" stop-color="#009286"/></linearGradient></defs><g fill="none" transform="translate(9 17)"><path fill="#000" d="M47.272 31.75c-.34-1.272-.671-2.883-2.15-3.224a30.742 30.742 0 0 0-6.1-.78c-.539-.04-1.392-.061-1.641-.394-.189-.254-.219-.451-.265-1.1-.062-.9-.134-1.236-.032-1.29 1.146-.6 1.7-1.192 2.309-3.657 1.363-3.421.637-7.662-1.023-9.412a6.051 6.051 0 0 0-5.137-2.063h-.054a6.182 6.182 0 0 0-4.867 2.762c-1.4 1.964-1.529 6.265.3 9.463.944 2.357 1.578 2.867 2.8 3.3.109.038.085.383.148 1.281.046.655.043.854-.109 1.131-.2.364-1.041.5-1.57.619l-.185.041a2.5 2.5 0 0 0-1.444-.939 37.612 37.612 0 0 0-7.449-.953c-.66-.049-1.7-.075-2.005-.482-.231-.309-.268-.55-.324-1.35-.077-1.1-.164-1.51-.039-1.575 1.4-.732 2.079-1.457 2.82-4.469 1.665-4.179.779-9.361-1.25-11.5a7.388 7.388 0 0 0-6.275-2.521h-.065A7.547 7.547 0 0 0 7.72 8.013c-1.711 2.4-1.868 7.654.362 11.561 1.153 2.879 1.928 3.5 3.415 4.032.132.047.1.469.18 1.565.056.8.054 1.044-.132 1.383-.244.445-1.272.616-1.919.756a35.9 35.9 0 0 0-7.144 2.169C.75 30.142.523 31.96.328 33.556a31.026 31.026 0 0 0-.156 5.892l.154 2.211 15.744-1.1.2-.014 6-.42L32 39.45l3.146-.22.163-.012 12.887-.9-.126-1.809a25.337 25.337 0 0 0-.798-4.759z" opacity=".08"/><path fill="url(#pr-profiles-people-a)" d="M34.2 27.952c-.306-1.578-.572-3.57-2.346-4.111a37.532 37.532 0 0 0-7.365-1.471c-.654-.095-1.692-.193-1.966-.62-.209-.325-.229-.568-.229-1.37 0-1.1-.058-1.518.071-1.574 1.447-.632 2.176-1.308 3.125-4.261 1.953-4.053 1.429-9.284-.445-11.558A7.389 7.389 0 0 0 18.961.035h-.069a7.549 7.549 0 0 0-6.166 2.952c-1.875 2.274-2.4 7.505-.445 11.558.949 2.953 1.678 3.629 3.125 4.261.129.056.071.475.071 1.574 0 .8-.02 1.045-.229 1.37-.275.427-1.312.525-1.966.62-2.479.3-4.92.858-7.282 1.665-1.774.542-2.127 2.339-2.432 3.917A30.921 30.921 0 0 0 3 33.82v2.215h31.765V33.82a31 31 0 0 0-.565-5.868z"/><path fill="url(#pr-profiles-people-b)" d="M50.535 29.419c-.25-1.292-.468-2.922-1.92-3.365a30.773 30.773 0 0 0-6.028-1.2c-.536-.078-1.385-.158-1.61-.508-.171-.266-.187-.465-.187-1.121 0-.9-.047-1.242.058-1.288 1.184-.517 1.781-1.071 2.558-3.488 1.6-3.317 1.17-7.6-.364-9.46a6.045 6.045 0 0 0-4.98-2.416h-.056a6.178 6.178 0 0 0-5.048 2.416c-1.534 1.861-1.962 6.143-.364 9.46.777 2.417 1.374 2.971 2.558 3.488.106.046.058.389.058 1.288 0 .656-.016.855-.187 1.121-.225.35-1.074.43-1.61.508a29.424 29.424 0 0 0-5.957 1.363c-1.452.443-1.741 1.914-1.991 3.206a25.317 25.317 0 0 0-.465 4.8v1.813h26v-1.814a25.317 25.317 0 0 0-.465-4.803z"/></g></svg>