<svg width="11" height="18" viewBox="0 0 11 18" fill="none" xmlns="http://www.w3.org/2000/svg">
<path fill-rule="evenodd" clip-rule="evenodd" d="M1.84874 9.89073V15.2521H9.15126V9.89073H1.84874ZM0.92437 8.04199C0.413854 8.04199 0 8.45585 0 8.96636V16.1764C0 16.687 0.413854 17.1008 0.92437 17.1008H10.0756C10.5861 17.1008 11 16.687 11 16.1764V8.96636C11 8.45585 10.5861 8.04199 10.0756 8.04199H0.92437Z" fill="#222222"/>
<mask id="mask0_15_11" style="mask-type:alpha" maskUnits="userSpaceOnUse" x="0" y="0" width="11" height="9">
<path d="M0.73938 0H10.2604V8.04202H0.73938V0Z" fill="#C4C4C4"/>
</mask>
<g mask="url(#mask0_15_11)">
<path fill-rule="evenodd" clip-rule="evenodd" d="M8.3193 8.64286V5.22269C8.3193 3.66562 7.05705 2.40337 5.49998 2.40337C3.9429 2.40337 2.68065 3.66562 2.68065 5.22269V8.64286C2.68065 10.1999 3.9429 11.4622 5.49998 11.4622C7.05705 11.4622 8.3193 10.1999 8.3193 8.64286ZM5.49998 0.554626C2.92187 0.554626 0.831909 2.64459 0.831909 5.22269V8.64286C0.831909 11.221 2.92187 13.3109 5.49998 13.3109C8.07808 13.3109 10.168 11.221 10.168 8.64286V5.22269C10.168 2.64459 8.07808 0.554626 5.49998 0.554626Z" fill="#222222"/>
</g>
<path d="M6.84037 12.0167C6.84037 12.7825 6.21959 13.4033 5.45382 13.4033C4.68804 13.4033 4.06726 12.7825 4.06726 12.0167C4.06726 11.251 4.68804 10.6302 5.45382 10.6302C6.21959 10.6302 6.84037 11.251 6.84037 12.0167Z" fill="#222222"/>
<path d="M4.5293 12.3865C4.5293 11.876 4.94315 11.4622 5.45367 11.4622V11.4622C5.96418 11.4622 6.37804 11.876 6.37804 12.3865V13.4958C6.37804 14.0063 5.96418 14.4201 5.45367 14.4201V14.4201C4.94315 14.4201 4.5293 14.0063 4.5293 13.4958V12.3865Z" fill="#222222"/>
</svg>
