<svg width="24" height="24" viewBox="0 0 24 24" fill="none" xmlns="http://www.w3.org/2000/svg">
<path fill-rule="evenodd" clip-rule="evenodd" d="M11.9996 7.99997C12.5715 7.99997 13.0279 8.49344 12.9988 9.0826L12.7369 13.7831C12.716 14.1874 12.3933 14.5052 11.9996 14.5052C11.6069 14.5052 11.2841 14.1874 11.2641 13.7831L11.0014 9.0826C10.9723 8.49344 11.4278 7.99997 11.9996 7.99997ZM12.0001 18C11.4478 18 11.0001 17.5523 11.0001 17C11.0001 16.4477 11.4478 16 12.0001 16C12.5524 16 13.0001 16.4477 13.0001 17C13.0001 17.5523 12.5524 18 12.0001 18ZM21.6612 18.009C22.4218 19.3423 21.459 21 19.924 21H4.0762C2.54123 21 1.5784 19.3423 2.33896 18.009L10.2628 4.11801C11.0303 2.77267 12.9699 2.77267 13.7373 4.11801L21.6612 18.009ZM19.0631 19C19.4469 19 19.6876 18.5855 19.4975 18.2522L12.4344 5.87033C12.2425 5.53397 11.7577 5.53397 11.5658 5.87033L4.50272 18.2522C4.31258 18.5855 4.55325 19 4.93704 19H19.0631Z" fill="#00716B"/>
</svg>
