<svg width="24" height="24" viewBox="0 0 24 24" fill="none" xmlns="http://www.w3.org/2000/svg">
<path d="M12 7C12.9889 7 13.9556 7.29324 14.7779 7.84265C15.6001 8.39206 16.241 9.17295 16.6194 10.0866C16.9978 11.0002 17.0969 12.0055 16.9039 12.9755C16.711 13.9454 16.2348 14.8363 15.5355 15.5355C14.8363 16.2348 13.9454 16.711 12.9755 16.9039C12.0055 17.0969 11.0002 16.9978 10.0866 16.6194C9.17296 16.241 8.39206 15.6001 7.84266 14.7779C7.29325 13.9556 7 12.9889 7 12C7.00159 10.6744 7.52889 9.40356 8.46622 8.46622C9.40356 7.52888 10.6744 7.00159 12 7V7ZM12 5C10.6155 5 9.26216 5.41054 8.11101 6.17971C6.95987 6.94888 6.06266 8.04213 5.53285 9.32122C5.00303 10.6003 4.86441 12.0078 5.13451 13.3656C5.4046 14.7235 6.07129 15.9708 7.05026 16.9497C8.02922 17.9287 9.2765 18.5954 10.6344 18.8655C11.9922 19.1356 13.3997 18.997 14.6788 18.4672C15.9579 17.9373 17.0511 17.0401 17.8203 15.889C18.5895 14.7378 19 13.3845 19 12C19 10.1435 18.2625 8.36301 16.9497 7.05025C15.637 5.7375 13.8565 5 12 5V5Z" fill="#00716B"/>
<path d="M14 7H10L11 3H13L14 7Z" fill="#00716B"/>
<path d="M10 17H14L13 21H11L10 17Z" fill="#00716B"/>
<path d="M17 14V10L21 11V13L17 14Z" fill="#00716B"/>
<path d="M7 10V14L3 13V11L7 10Z" fill="#00716B"/>
<path d="M14.1211 16.95L16.9501 14.121L19.0711 17.657L17.6571 19.071L14.1211 16.95Z" fill="#00716B"/>
<path d="M9.8792 7.05002L7.0502 9.87902L4.9292 6.34302L6.3432 4.92902L9.8792 7.05002Z" fill="#00716B"/>
<path d="M7.0502 14.121L9.8792 16.95L6.3432 19.071L4.9292 17.657L7.0502 14.121Z" fill="#00716B"/>
<path d="M16.9501 9.87902L14.1211 7.05002L17.6571 4.92902L19.0711 6.34302L16.9501 9.87902Z" fill="#00716B"/>
<path d="M12 14C13.1046 14 14 13.1046 14 12C14 10.8954 13.1046 10 12 10C10.8954 10 10 10.8954 10 12C10 13.1046 10.8954 14 12 14Z" fill="#00716B"/>
</svg>
